<?xml version="1.0" standalone="no"?>
<!DOCTYPE svg PUBLIC "-//W3C//DTD SVG 20010904//EN"
 "http://www.w3.org/TR/2001/REC-SVG-20010904/DTD/svg10.dtd">
<svg version="1.0" xmlns="http://www.w3.org/2000/svg"
 width="200.000000pt" height="235.000000pt" viewBox="0 0 200.000000 235.000000"
 preserveAspectRatio="xMidYMid meet">
<metadata>
Created by potrace 1.16, written by Peter Selinger 2001-2019
</metadata>
<g transform="translate(0.000000,235.000000) scale(0.100000,-0.100000)"
fill="#000000" stroke="none">
<path d="M50 2085 c0 -4 6 -18 14 -33 7 -15 19 -72 26 -127 12 -92 25 -156 52
-245 21 -70 21 -165 0 -227 -34 -96 -42 -158 -42 -303 0 -163 13 -225 80 -375
21 -48 113 -169 184 -243 53 -55 168 -140 259 -190 28 -16 68 -38 87 -49 19
-10 51 -25 70 -33 19 -7 61 -31 92 -53 l56 -39 49 29 c26 15 72 39 103 53 112
51 342 197 438 278 57 48 151 181 195 274 58 124 85 332 57 437 -5 20 -16 72
-25 116 -9 44 -21 103 -27 131 -9 45 -7 66 15 160 14 60 31 161 38 224 6 63
17 136 25 162 7 25 10 49 7 52 -11 11 -87 6 -158 -10 -38 -8 -86 -17 -105 -20
-19 -3 -46 -10 -60 -16 -66 -28 -112 -41 -213 -58 -70 -13 -72 -13 -187 22
-19 6 -57 21 -84 34 -51 26 -59 25 -131 -6 -22 -9 -53 -22 -68 -29 -58 -23
-271 -12 -352 19 -19 7 -49 14 -180 42 -27 6 -63 14 -79 19 -32 10 -136 12
-136 4z m340 -165 c36 -10 95 -21 132 -24 88 -8 98 -13 98 -44 0 -25 94 -281
130 -354 l19 -38 -100 0 c-95 0 -99 1 -89 19 5 11 10 27 10 35 0 19 -39 56
-59 56 -40 0 -68 -69 -39 -98 9 -9 8 -12 -5 -12 -13 0 -17 10 -19 48 -1 40 0
223 1 245 1 4 23 7 49 7 56 0 72 12 72 56 0 63 4 62 -173 58 -89 -2 -168 -4
-175 -4 -7 0 -18 -12 -24 -27 l-11 -28 -8 35 c-4 19 -11 47 -15 63 -3 15 -2
33 5 40 12 15 57 7 201 -33z m1278 -10 c3 -52 -6 -99 -42 -233 -9 -32 -16 -74
-16 -92 0 -33 -2 -35 -33 -35 -18 0 -38 -5 -45 -12 -7 -7 -12 -10 -12 -7 0 14
93 286 101 294 22 22 9 42 -32 49 -56 9 -81 -9 -97 -70 -20 -73 -47 -137 -58
-141 -6 -2 -17 14 -24 36 -17 53 -44 81 -79 81 -30 0 -44 -12 -71 -62 -31 -58
-36 -53 -89 81 -31 79 -30 81 37 82 31 0 68 2 82 4 48 8 231 58 270 74 14 6
43 9 65 8 l40 -2 3 -55z m-648 1 c82 -27 84 -28 52 -35 -18 -4 -54 -7 -80 -6
-26 2 -53 2 -59 1 -14 -1 -43 -52 -43 -75 0 -8 -16 -49 -36 -91 -40 -85 -47
-85 -74 0 -12 38 -42 111 -61 147 -10 19 -12 45 -4 36 3 -2 51 8 107 23 57 15
105 28 108 28 3 1 44 -12 90 -28z m25 -116 c32 -74 44 -103 80 -190 20 -49 43
-102 50 -117 l13 -28 -90 0 c-91 0 -91 0 -73 20 16 18 17 23 5 45 -15 28 -41
39 -70 30 -25 -8 -37 -52 -21 -77 10 -16 8 -18 -29 -18 l-40 0 16 38 c9 20 21
51 26 67 6 17 14 35 18 40 4 6 26 58 50 118 23 59 44 107 46 107 2 0 10 -16
19 -35z m-695 -185 l0 -150 -45 0 -45 0 0 83 c-1 77 -7 122 -25 190 l-7 27 61
0 61 0 0 -150z m1108 -601 l2 -386 -71 -54 c-78 -59 -218 -149 -234 -149 -5 0
-24 14 -42 32 -24 23 -33 41 -33 64 0 40 31 55 59 30 10 -9 25 -16 34 -16 15
0 17 12 17 80 0 85 -7 95 -49 68 -30 -19 -53 -3 -49 34 l3 33 63 3 c54 3 67 0
82 -17 9 -12 20 -21 24 -21 4 0 6 33 4 73 l-3 72 -140 0 -140 0 0 -225 0 -225
65 -5 c65 -5 65 -5 40 -22 -14 -9 -43 -24 -65 -33 -22 -10 -48 -21 -57 -26
-29 -15 -43 -11 -130 34 l-83 42 75 5 75 5 0 225 0 225 -150 0 -150 0 -3 -67
c-3 -70 4 -81 32 -53 12 12 34 15 93 13 l78 -3 0 -35 c0 -43 -26 -52 -59 -21
-12 12 -26 18 -29 14 -9 -8 -9 -168 0 -176 3 -4 17 2 29 14 34 32 58 22 62
-27 3 -36 -1 -43 -39 -74 l-42 -34 -31 19 c-17 9 -46 26 -64 37 -78 44 -137
90 -173 133 l-39 47 0 357 c0 196 3 366 6 379 l6 22 512 -2 511 -3 3 -386z
m171 377 c38 -46 50 -343 18 -451 -24 -81 -58 -155 -69 -149 -9 6 -11 598 -1
607 11 12 40 8 52 -7z m-1319 -302 c0 -162 -3 -294 -8 -294 -7 0 -27 40 -65
135 -17 42 -21 74 -21 195 -1 182 14 257 53 262 14 2 29 2 34 0 4 -2 7 -136 7
-298z"/>
<path d="M776 1342 c-3 -5 3 -17 14 -27 15 -13 20 -31 20 -67 0 -58 -16 -69
-58 -39 -16 11 -32 18 -36 14 -3 -3 -6 -42 -6 -85 0 -60 3 -78 14 -78 7 0 19
7 26 15 7 8 23 15 37 15 22 0 24 -3 21 -42 l-3 -43 -69 -3 c-49 -2 -75 1 -92
13 -39 25 -44 19 -44 -50 l0 -65 155 0 155 0 -2 223 -3 222 -62 3 c-34 2 -64
-1 -67 -6z"/>
<path d="M987 1343 c-4 -3 -7 -105 -7 -225 l0 -219 148 3 147 3 3 63 c2 48 0
62 -11 62 -8 0 -20 -7 -27 -15 -9 -11 -32 -15 -81 -15 l-69 0 0 40 c0 36 3 40
24 40 14 0 28 -4 31 -10 17 -27 25 -3 25 71 l0 81 -26 -17 c-14 -9 -32 -14
-40 -11 -20 8 -19 100 2 120 8 9 12 20 9 26 -7 11 -118 14 -128 3z"/>
</g>
</svg>
